<svg xmlns="http://www.w3.org/2000/svg" xmlns:xlink="http://www.w3.org/1999/xlink" width="68" zoomAndPan="magnify" viewBox="0 0 375 374.999991" height="85" preserveAspectRatio="xMidYMid meet" version="1.0"><defs><clipPath id="4c9c57ed14"><path d="M 148 235 L 227 235 L 227 337.5 L 148 337.5 Z M 148 235 " clip-rule="nonzero"/></clipPath><clipPath id="4337adfeb9"><path d="M 68.0625 235 L 171 235 L 171 337.5 L 68.0625 337.5 Z M 68.0625 235 " clip-rule="nonzero"/></clipPath><clipPath id="74cf2ad87b"><path d="M 205 235 L 307.3125 235 L 307.3125 337.5 L 205 337.5 Z M 205 235 " clip-rule="nonzero"/></clipPath><clipPath id="ffa7e0a29a"><path d="M 141 37.5 L 239 37.5 L 239 104 L 141 104 Z M 141 37.5 " clip-rule="nonzero"/></clipPath></defs><g clip-path="url(#4c9c57ed14)"><path fill="#ffffff" d="M 197.148438 286.445312 C 197.148438 264.621094 209.125 245.570312 226.839844 235.390625 L 148.535156 235.390625 C 166.25 245.570312 178.226562 264.621094 178.226562 286.445312 C 178.226562 308.273438 166.25 327.320312 148.539062 337.5 L 226.835938 337.5 C 209.125 327.320312 197.148438 308.273438 197.148438 286.445312 " fill-opacity="1" fill-rule="nonzero"/></g><path fill="#ffffff" d="M 243.878906 91.304688 C 240.515625 100.050781 233.601562 106.363281 225.425781 109.386719 L 263.421875 123.933594 C 269.257812 126.167969 275.640625 125.984375 281.402344 123.421875 C 287.15625 120.863281 291.558594 116.242188 293.796875 110.410156 C 296.03125 104.585938 295.851562 98.207031 293.289062 92.460938 C 290.722656 86.714844 286.097656 82.316406 280.257812 80.082031 L 242.304688 65.554688 C 242.613281 66.144531 242.933594 66.730469 243.207031 67.34375 C 246.632812 75.007812 246.871094 83.515625 243.878906 91.304688 " fill-opacity="1" fill-rule="nonzero"/><path fill="#ffffff" d="M 203.347656 109.351562 C 203.34375 109.351562 203.335938 109.351562 203.332031 109.347656 L 203.332031 109.34375 L 192.730469 105.289062 L 179.425781 131.183594 L 214.207031 137.429688 L 215.96875 114.183594 L 203.347656 109.351562 " fill-opacity="1" fill-rule="nonzero"/><path fill="#ffffff" d="M 219.273438 155.882812 C 220.492188 155.035156 221.308594 153.777344 221.566406 152.339844 C 221.824219 150.894531 221.503906 149.433594 220.65625 148.21875 C 219.808594 147.003906 218.550781 146.191406 217.109375 145.929688 L 169.449219 137.375 C 169.117188 137.316406 168.789062 137.289062 168.46875 137.289062 C 165.847656 137.289062 163.511719 139.164062 163.03125 141.832031 C 162.769531 143.269531 163.09375 144.734375 163.941406 145.949219 C 164.789062 147.167969 166.050781 147.976562 167.488281 148.234375 L 215.148438 156.792969 C 216.597656 157.0625 218.054688 156.730469 219.273438 155.882812 " fill-opacity="1" fill-rule="nonzero"/><path fill="#ffffff" d="M 208.515625 179.65625 L 210.160156 163.882812 L 169.726562 156.621094 L 164.03125 179.65625 L 208.515625 179.65625 " fill-opacity="1" fill-rule="nonzero"/><path fill="#ffffff" d="M 246.421875 198.578125 C 246.421875 192.476562 241.449219 187.515625 235.335938 187.515625 L 140.039062 187.515625 C 133.925781 187.515625 128.953125 192.476562 128.953125 198.578125 L 128.953125 227.535156 L 246.421875 227.535156 L 246.421875 198.578125 " fill-opacity="1" fill-rule="nonzero"/><path fill="#ffffff" d="M 119.226562 283.914062 C 117.824219 283.914062 116.691406 285.050781 116.691406 286.445312 C 116.691406 287.839844 117.824219 288.976562 119.226562 288.976562 C 120.625 288.976562 121.761719 287.839844 121.761719 286.445312 C 121.761719 285.050781 120.625 283.914062 119.226562 283.914062 " fill-opacity="1" fill-rule="nonzero"/><path fill="#ffffff" d="M 119.226562 296.832031 C 113.488281 296.832031 108.820312 292.175781 108.820312 286.445312 C 108.820312 280.71875 113.488281 276.058594 119.226562 276.058594 C 124.960938 276.058594 129.632812 280.71875 129.632812 286.445312 C 129.632812 292.175781 124.960938 296.832031 119.226562 296.832031 Z M 119.226562 272.722656 C 111.644531 272.722656 105.476562 278.878906 105.476562 286.445312 C 105.476562 294.015625 111.644531 300.171875 119.226562 300.171875 C 126.808594 300.171875 132.972656 294.015625 132.972656 286.445312 C 132.972656 278.878906 126.808594 272.722656 119.226562 272.722656 " fill-opacity="1" fill-rule="nonzero"/><g clip-path="url(#4337adfeb9)"><path fill="#ffffff" d="M 142.476562 322.308594 C 141.738281 323.042969 140.738281 323.457031 139.695312 323.457031 C 138.648438 323.457031 137.648438 323.042969 136.914062 322.308594 L 133.691406 319.09375 C 133.175781 319.320312 132.648438 319.535156 132.117188 319.738281 L 132.117188 324.289062 C 132.117188 326.457031 130.355469 328.21875 128.183594 328.21875 L 110.269531 328.21875 C 108.09375 328.21875 106.335938 326.457031 106.335938 324.289062 L 106.335938 319.738281 C 105.800781 319.535156 105.273438 319.320312 104.761719 319.09375 L 101.539062 322.308594 C 100.066406 323.777344 97.453125 323.78125 95.976562 322.308594 L 83.308594 309.660156 C 82.570312 308.921875 82.152344 307.925781 82.152344 306.882812 C 82.152344 305.839844 82.570312 304.84375 83.308594 304.105469 L 86.527344 300.890625 C 86.300781 300.375 86.085938 299.847656 85.878906 299.316406 L 81.320312 299.316406 C 79.148438 299.316406 77.386719 297.558594 77.386719 295.390625 L 77.386719 277.503906 C 77.386719 275.335938 79.148438 273.578125 81.320312 273.578125 L 85.878906 273.578125 C 86.082031 273.042969 86.300781 272.519531 86.527344 272 L 83.308594 268.785156 C 82.570312 268.050781 82.152344 267.050781 82.152344 266.007812 C 82.152344 264.96875 82.570312 263.96875 83.308594 263.230469 L 95.976562 250.585938 C 96.710938 249.847656 97.710938 249.4375 98.757812 249.4375 C 99.800781 249.4375 100.800781 249.847656 101.539062 250.585938 L 104.761719 253.800781 C 105.277344 253.574219 105.800781 253.355469 106.335938 253.152344 L 106.335938 248.601562 C 106.335938 246.433594 108.09375 244.671875 110.269531 244.671875 L 128.183594 244.671875 C 130.355469 244.671875 132.117188 246.433594 132.117188 248.601562 L 132.117188 253.152344 C 132.648438 253.355469 133.171875 253.574219 133.691406 253.800781 L 136.914062 250.585938 C 138.382812 249.113281 140.996094 249.109375 142.476562 250.585938 L 155.144531 263.230469 C 155.878906 263.96875 156.296875 264.96875 156.296875 266.007812 C 156.296875 267.050781 155.878906 268.050781 155.144531 268.785156 L 151.925781 272 C 152.148438 272.519531 152.371094 273.042969 152.574219 273.578125 L 157.128906 273.578125 C 159.304688 273.578125 161.066406 275.335938 161.066406 277.503906 L 161.066406 295.390625 C 161.066406 297.558594 159.304688 299.316406 157.128906 299.316406 L 152.574219 299.316406 C 152.367188 299.847656 152.148438 300.375 151.925781 300.890625 L 155.144531 304.105469 C 155.878906 304.84375 156.296875 305.839844 156.296875 306.882812 C 156.296875 307.925781 155.878906 308.921875 155.144531 309.660156 Z M 170.359375 286.445312 C 170.359375 258.296875 147.417969 235.390625 119.226562 235.390625 C 91.03125 235.390625 68.09375 258.296875 68.09375 286.445312 C 68.09375 314.597656 91.03125 337.5 119.226562 337.5 C 147.417969 337.5 170.359375 314.597656 170.359375 286.445312 " fill-opacity="1" fill-rule="nonzero"/></g><path fill="#ffffff" d="M 119.226562 308.027344 C 107.308594 308.027344 97.609375 298.347656 97.609375 286.445312 C 97.609375 274.546875 107.308594 264.863281 119.226562 264.863281 C 131.144531 264.863281 140.84375 274.546875 140.84375 286.445312 C 140.84375 298.347656 131.144531 308.027344 119.226562 308.027344 Z M 153.195312 281.433594 L 149.75 281.433594 C 148 281.433594 146.464844 280.28125 145.972656 278.605469 C 145.398438 276.652344 144.636719 274.796875 143.703125 273.101562 C 142.859375 271.566406 143.132812 269.664062 144.367188 268.433594 L 146.796875 266.007812 L 139.695312 258.917969 L 137.269531 261.339844 C 136.03125 262.578125 134.136719 262.851562 132.59375 262.007812 C 130.890625 261.074219 129.03125 260.3125 127.078125 259.742188 C 125.402344 259.253906 124.25 257.714844 124.25 255.96875 L 124.25 252.53125 L 114.203125 252.53125 L 114.203125 255.96875 C 114.203125 257.714844 113.050781 259.253906 111.371094 259.742188 C 109.417969 260.3125 107.558594 261.074219 105.855469 262.007812 C 104.320312 262.847656 102.417969 262.574219 101.183594 261.339844 L 98.757812 258.917969 L 91.652344 266.007812 L 94.082031 268.433594 C 95.320312 269.664062 95.589844 271.566406 94.75 273.101562 C 93.816406 274.796875 93.050781 276.652344 92.480469 278.605469 C 91.988281 280.28125 90.449219 281.433594 88.699219 281.433594 L 85.253906 281.433594 L 85.253906 291.460938 L 88.699219 291.460938 C 90.449219 291.460938 91.988281 292.613281 92.480469 294.285156 C 93.050781 296.242188 93.816406 298.09375 94.75 299.792969 C 95.589844 301.324219 95.320312 303.226562 94.082031 304.460938 L 91.652344 306.882812 L 98.757812 313.972656 L 101.183594 311.550781 C 102.417969 310.320312 104.324219 310.046875 105.855469 310.882812 C 107.558594 311.816406 109.417969 312.578125 111.375 313.152344 C 113.050781 313.644531 114.203125 315.179688 114.203125 316.921875 L 114.203125 320.363281 L 124.25 320.363281 L 124.25 316.921875 C 124.25 315.179688 125.402344 313.644531 127.074219 313.152344 C 129.03125 312.578125 130.890625 311.816406 132.59375 310.882812 C 134.132812 310.042969 136.03125 310.316406 137.269531 311.550781 L 139.695312 313.972656 L 146.796875 306.882812 L 144.367188 304.460938 C 143.132812 303.226562 142.859375 301.324219 143.703125 299.792969 C 144.636719 298.09375 145.398438 296.242188 145.972656 294.285156 C 146.464844 292.613281 148 291.460938 149.75 291.460938 L 153.195312 291.460938 L 153.195312 281.433594 " fill-opacity="1" fill-rule="nonzero"/><path fill="#ffffff" d="M 256.148438 296.832031 C 250.414062 296.832031 245.742188 292.175781 245.742188 286.445312 C 245.742188 280.71875 250.414062 276.058594 256.148438 276.058594 C 261.886719 276.058594 266.554688 280.71875 266.554688 286.445312 C 266.554688 292.175781 261.886719 296.832031 256.148438 296.832031 Z M 256.148438 272.722656 C 248.566406 272.722656 242.402344 278.878906 242.402344 286.445312 C 242.402344 294.015625 248.566406 300.171875 256.148438 300.171875 C 263.730469 300.171875 269.898438 294.015625 269.898438 286.445312 C 269.898438 278.878906 263.730469 272.722656 256.148438 272.722656 " fill-opacity="1" fill-rule="nonzero"/><path fill="#ffffff" d="M 256.148438 283.914062 C 254.75 283.914062 253.613281 285.050781 253.613281 286.445312 C 253.613281 287.839844 254.75 288.976562 256.148438 288.976562 C 257.550781 288.976562 258.683594 287.839844 258.683594 286.445312 C 258.683594 285.050781 257.550781 283.914062 256.148438 283.914062 " fill-opacity="1" fill-rule="nonzero"/><path fill="#ffffff" d="M 256.148438 308.027344 C 244.230469 308.027344 234.53125 298.347656 234.53125 286.445312 C 234.53125 274.546875 244.230469 264.863281 256.148438 264.863281 C 268.066406 264.863281 277.765625 274.546875 277.765625 286.445312 C 277.765625 298.347656 268.066406 308.027344 256.148438 308.027344 Z M 282.898438 278.605469 C 282.324219 276.652344 281.558594 274.796875 280.625 273.101562 C 279.785156 271.566406 280.054688 269.664062 281.292969 268.433594 L 283.722656 266.007812 L 276.617188 258.917969 L 274.191406 261.339844 C 272.960938 262.578125 271.054688 262.851562 269.519531 262.007812 C 267.816406 261.074219 265.957031 260.3125 264.003906 259.742188 C 262.324219 259.253906 261.171875 257.714844 261.171875 255.96875 L 261.171875 252.53125 L 251.125 252.53125 L 251.125 255.96875 C 251.125 257.714844 249.972656 259.253906 248.296875 259.742188 C 246.34375 260.3125 244.484375 261.074219 242.78125 262.007812 C 241.242188 262.847656 239.34375 262.574219 238.105469 261.339844 L 235.679688 258.917969 L 228.578125 266.007812 L 231.007812 268.433594 C 232.242188 269.664062 232.515625 271.566406 231.671875 273.101562 C 230.738281 274.796875 229.976562 276.652344 229.402344 278.605469 C 228.910156 280.28125 227.375 281.433594 225.625 281.433594 L 222.179688 281.433594 L 222.179688 291.460938 L 225.625 291.460938 C 227.375 291.460938 228.910156 292.613281 229.402344 294.285156 C 229.976562 296.242188 230.738281 298.09375 231.671875 299.792969 C 232.515625 301.324219 232.242188 303.226562 231.007812 304.460938 L 228.578125 306.882812 L 235.679688 313.972656 L 238.105469 311.550781 C 239.347656 310.320312 241.25 310.046875 242.78125 310.882812 C 244.484375 311.816406 246.34375 312.578125 248.300781 313.152344 C 249.972656 313.644531 251.125 315.179688 251.125 316.921875 L 251.125 320.363281 L 261.171875 320.363281 L 261.171875 316.921875 C 261.171875 315.179688 262.324219 313.644531 264 313.152344 C 265.957031 312.578125 267.816406 311.816406 269.519531 310.882812 C 271.054688 310.042969 272.957031 310.316406 274.191406 311.550781 L 276.617188 313.972656 L 283.722656 306.882812 L 281.292969 304.460938 C 280.054688 303.226562 279.785156 301.324219 280.625 299.792969 C 281.558594 298.09375 282.324219 296.242188 282.898438 294.285156 C 283.386719 292.613281 284.925781 291.460938 286.675781 291.460938 L 290.121094 291.460938 L 290.121094 281.433594 L 286.675781 281.433594 C 284.925781 281.433594 283.386719 280.28125 282.898438 278.605469 " fill-opacity="1" fill-rule="nonzero"/><g clip-path="url(#74cf2ad87b)"><path fill="#ffffff" d="M 294.054688 299.316406 L 289.496094 299.316406 C 289.289062 299.847656 289.074219 300.375 288.847656 300.890625 L 292.066406 304.105469 C 292.804688 304.84375 293.222656 305.839844 293.222656 306.882812 C 293.222656 307.925781 292.804688 308.921875 292.066406 309.660156 L 279.398438 322.308594 C 278.664062 323.042969 277.660156 323.457031 276.617188 323.457031 C 275.574219 323.457031 274.574219 323.042969 273.835938 322.308594 L 270.613281 319.09375 C 270.101562 319.320312 269.574219 319.535156 269.039062 319.738281 L 269.039062 324.289062 C 269.039062 326.457031 267.28125 328.21875 265.105469 328.21875 L 247.191406 328.21875 C 245.019531 328.21875 243.257812 326.457031 243.257812 324.289062 L 243.257812 319.738281 C 242.726562 319.535156 242.199219 319.320312 241.683594 319.09375 L 238.460938 322.308594 C 236.992188 323.777344 234.378906 323.78125 232.898438 322.308594 L 220.230469 309.660156 C 219.496094 308.921875 219.078125 307.925781 219.078125 306.882812 C 219.078125 305.839844 219.496094 304.84375 220.230469 304.105469 L 223.449219 300.890625 C 223.226562 300.375 223.007812 299.847656 222.800781 299.316406 L 218.246094 299.316406 C 216.070312 299.316406 214.3125 297.558594 214.3125 295.390625 L 214.3125 277.503906 C 214.3125 275.335938 216.070312 273.578125 218.246094 273.578125 L 222.800781 273.578125 C 223.007812 273.042969 223.226562 272.519531 223.449219 272 L 220.230469 268.785156 C 219.496094 268.050781 219.078125 267.050781 219.078125 266.007812 C 219.078125 264.96875 219.496094 263.96875 220.230469 263.230469 L 232.898438 250.585938 C 233.636719 249.847656 234.636719 249.4375 235.679688 249.4375 C 236.726562 249.4375 237.726562 249.847656 238.460938 250.585938 L 241.683594 253.800781 C 242.203125 253.574219 242.726562 253.355469 243.257812 253.152344 L 243.257812 248.601562 C 243.257812 246.433594 245.019531 244.671875 247.191406 244.671875 L 265.105469 244.671875 C 267.28125 244.671875 269.039062 246.433594 269.039062 248.601562 L 269.039062 253.152344 C 269.574219 253.355469 270.097656 253.574219 270.613281 253.800781 L 273.835938 250.585938 C 275.308594 249.113281 277.921875 249.109375 279.398438 250.585938 L 292.066406 263.230469 C 292.804688 263.96875 293.222656 264.96875 293.222656 266.007812 C 293.222656 267.050781 292.804688 268.050781 292.066406 268.785156 L 288.847656 272 C 289.074219 272.519531 289.292969 273.042969 289.496094 273.578125 L 294.054688 273.578125 C 296.226562 273.578125 297.988281 275.335938 297.988281 277.503906 L 297.988281 295.390625 C 297.988281 297.558594 296.226562 299.316406 294.054688 299.316406 Z M 256.148438 235.390625 C 227.957031 235.390625 205.015625 258.296875 205.015625 286.445312 C 205.015625 314.597656 227.957031 337.5 256.148438 337.5 C 284.34375 337.5 307.28125 314.597656 307.28125 286.445312 C 307.28125 258.296875 284.34375 235.390625 256.148438 235.390625 " fill-opacity="1" fill-rule="nonzero"/></g><path fill="#ffffff" d="M 172.132812 67.921875 C 174.105469 68.664062 176.3125 67.691406 177.0625 65.726562 C 177.8125 63.769531 176.828125 61.5625 174.871094 60.8125 C 174.867188 60.8125 174.867188 60.8125 174.867188 60.8125 C 174.425781 60.640625 173.960938 60.554688 173.496094 60.554688 C 172.972656 60.554688 172.445312 60.667969 171.949219 60.886719 C 171.019531 61.304688 170.304688 62.054688 169.941406 63.003906 C 169.574219 63.953125 169.601562 64.988281 170.015625 65.914062 C 170.429688 66.847656 171.183594 67.554688 172.132812 67.921875 " fill-opacity="1" fill-rule="nonzero"/><path fill="#ffffff" d="M 199.507812 78.398438 C 201.472656 79.148438 203.675781 78.164062 204.433594 76.203125 C 205.179688 74.246094 204.195312 72.039062 202.238281 71.285156 C 201.789062 71.113281 201.328125 71.035156 200.871094 71.035156 C 199.339844 71.035156 197.890625 71.964844 197.308594 73.480469 C 196.945312 74.429688 196.972656 75.464844 197.382812 76.390625 C 197.800781 77.320312 198.554688 78.035156 199.507812 78.398438 " fill-opacity="1" fill-rule="nonzero"/><g clip-path="url(#ffa7e0a29a)"><path fill="#ffffff" d="M 162.59375 60.191406 C 163.710938 57.28125 165.898438 54.980469 168.742188 53.710938 C 171.589844 52.441406 174.769531 52.355469 177.683594 53.476562 C 183.695312 55.777344 186.714844 62.535156 184.410156 68.539062 C 182.632812 73.175781 178.183594 76.027344 173.484375 76.027344 C 172.097656 76.027344 170.691406 75.78125 169.320312 75.253906 C 166.40625 74.140625 164.101562 71.960938 162.832031 69.113281 C 161.5625 66.265625 161.476562 63.097656 162.59375 60.191406 Z M 189.960938 70.664062 C 192.265625 64.660156 199.042969 61.636719 205.050781 63.953125 C 211.0625 66.25 214.085938 73.007812 211.777344 79.015625 C 209.996094 83.652344 205.554688 86.503906 200.855469 86.503906 C 199.46875 86.503906 198.058594 86.257812 196.691406 85.734375 C 193.773438 84.617188 191.46875 82.4375 190.199219 79.589844 C 188.929688 76.742188 188.84375 73.574219 189.960938 70.664062 Z M 156.234375 82.902344 L 206.167969 102.015625 C 218.265625 106.636719 231.886719 100.574219 236.53125 88.492188 C 238.765625 82.660156 238.585938 76.289062 236.023438 70.539062 C 233.457031 64.792969 228.828125 60.394531 222.992188 58.164062 L 173.074219 39.054688 C 170.363281 38.019531 167.535156 37.5 164.707031 37.5 C 161.441406 37.5 158.175781 38.1875 155.089844 39.5625 C 149.332031 42.125 144.929688 46.746094 142.695312 52.574219 C 140.457031 58.402344 140.636719 64.777344 143.203125 70.527344 C 145.765625 76.273438 150.394531 80.667969 156.234375 82.902344 " fill-opacity="1" fill-rule="nonzero"/></g></svg>